<?xml version="1.0" encoding="iso-8859-1"?>
<!-- Generator: Adobe Illustrator 16.0.0, SVG Export Plug-In . SVG Version: 6.00 Build 0)  -->
<!DOCTYPE svg PUBLIC "-//W3C//DTD SVG 1.1//EN" "http://www.w3.org/Graphics/SVG/1.1/DTD/svg11.dtd">
<svg xmlns="http://www.w3.org/2000/svg" xmlns:xlink="http://www.w3.org/1999/xlink" version="1.1" id="Capa_1" x="0px" y="0px" width="512px" height="512px" viewBox="0 0 378.651 378.651" style="enable-background:new 0 0 378.651 378.651;" xml:space="preserve">
<g>
	<g>
		<path d="M351.977,25.094c-21.536-24.177-58.441-26.7-83.07-6.002C245.003,6.889,217.954,0,189.325,0s-55.678,6.89-79.581,19.092    C85.116-1.606,48.209,0.916,26.674,25.094C5.841,48.486,6.799,83.831,28.071,106.101c-9.229,21.329-14.356,44.83-14.356,69.51    c0,67.068,37.799,125.469,93.208,155.037l-35.199,35.2c-2.929,2.93-2.929,7.678,0,10.606c1.464,1.464,3.384,2.196,5.303,2.196    s3.839-0.732,5.303-2.196l38.953-38.954c20.936,8.833,43.928,13.722,68.042,13.722s47.105-4.889,68.042-13.722l38.953,38.954    c1.464,1.464,3.384,2.196,5.303,2.196s3.839-0.732,5.303-2.196c2.93-2.93,2.93-7.678,0-10.606l-35.198-35.2    c55.408-29.568,93.208-87.969,93.208-155.037c0-24.68-5.127-48.181-14.356-69.51C371.852,83.832,372.811,48.486,351.977,25.094z     M340.775,35.071c14.31,16.065,14.898,39.664,2.616,56.334C329.039,65.25,308.22,43.128,283.103,27.2    C301.312,15.465,325.925,18.398,340.775,35.071z M37.875,35.072C52.727,18.4,77.339,15.466,95.548,27.2    C70.43,43.129,49.611,65.25,35.259,91.406C22.975,74.735,23.565,51.137,37.875,35.072z M189.325,336.223    c-88.561,0-160.611-72.051-160.611-160.611C28.714,87.05,100.764,15,189.325,15c88.561,0,160.611,72.05,160.611,160.611    C349.937,264.172,277.886,336.223,189.325,336.223z" fill="#0674EC"/>
		<path d="M196.825,72.558c0-4.142-3.357-7.5-7.5-7.5c-4.142,0-7.5,3.358-7.5,7.5v112.181c0,4.142,3.358,7.5,7.5,7.5h115.154    c4.142,0,7.5-3.358,7.5-7.5s-3.358-7.5-7.5-7.5H196.825V72.558z" fill="#0674EC"/>
	</g>
</g>
<g>
</g>
<g>
</g>
<g>
</g>
<g>
</g>
<g>
</g>
<g>
</g>
<g>
</g>
<g>
</g>
<g>
</g>
<g>
</g>
<g>
</g>
<g>
</g>
<g>
</g>
<g>
</g>
<g>
</g>
</svg>
