<?xml version="1.0" encoding="iso-8859-1"?>
<!-- Generator: Adobe Illustrator 19.0.0, SVG Export Plug-In . SVG Version: 6.00 Build 0)  -->
<svg version="1.1" id="Layer_1" xmlns="http://www.w3.org/2000/svg" xmlns:xlink="http://www.w3.org/1999/xlink" x="0px" y="0px"
	 viewBox="0 0 512 512" style="enable-background:new 0 0 512 512;" xml:space="preserve">
<g>
	<g>
		<g>
			<path d="M87.759,112.774H67.058c-4.378,0-7.928,3.548-7.928,7.928v50.605c0,4.379,3.549,7.928,7.928,7.928
				c4.378,0,7.928-3.548,7.928-7.928v-11.672h12.772c12.92,0,23.431-10.51,23.431-23.43
				C111.188,123.286,100.679,112.774,87.759,112.774z M87.759,143.779H74.986v-15.15h12.772c4.177,0,7.576,3.398,7.576,7.576
				C95.333,140.382,91.936,143.779,87.759,143.779z"/>
			<path d="M219.138,277.272H194.75c-4.378,0-7.928,3.548-7.928,7.928v43.856c0,4.379,3.549,7.928,7.928,7.928h24.997
				c19.393,0,32.937-12.186,32.937-29.635v-0.422C252.685,288.635,239.83,277.272,219.138,277.272z M236.829,307.348
				c0,8.5-6.545,13.78-17.081,13.78h-17.07v-28h16.461c4.376,0,17.69,0,17.69,13.798V307.348z"/>
			<path d="M152.43,131.358l0.614,0.277c3.997,1.79,8.685,0.005,10.477-3.99c1.791-3.995,0.004-8.686-3.99-10.477l-0.57-0.256
				c-6.218-2.814-25.144-11.368-37.057,2.61c-4.186,4.912-5.612,11.093-3.909,16.96c1.299,4.481,5.68,12.68,20.414,17.243
				c6.477,2.006,9.369,4.763,9.877,6.514c0.081,0.282,0.298,1.028-0.75,2.259c-3.702,4.343-11.808,1.451-18.457-1.554l-0.615-0.278
				c-3.996-1.79-8.685-0.004-10.477,3.99c-1.791,3.995-0.004,8.687,3.99,10.477l0.57,0.257c3.596,1.626,11.44,5.172,19.721,5.172
				c6.039,0,12.311-1.887,17.335-7.782c4.186-4.913,5.612-11.093,3.91-16.96c-1.3-4.481-5.681-12.679-20.414-17.241
				c-6.477-2.006-9.368-4.764-9.877-6.515c-0.081-0.281-0.298-1.028,0.749-2.258C137.677,125.457,145.782,128.353,152.43,131.358z"
				/>
			<path d="M494.501,85.003l-82.68-82.682C410.335,0.835,408.319,0,406.216,0H78.161c-4.378,0-7.928,3.548-7.928,7.928v74.753
				H23.104c-4.378,0-7.928,3.548-7.928,7.928v111.085c0,4.378,3.549,7.928,7.928,7.928h47.129v294.452
				c0,4.379,3.549,7.928,7.928,7.928h410.735c4.378,0,7.928-3.548,7.928-7.928V90.609C496.823,88.506,495.988,86.49,494.501,85.003z
				 M414.144,27.067l55.613,55.614h-55.613V27.067z M31.032,193.766v-95.23h224.402v95.23H31.032z M86.089,496.145V209.621h177.272
				c4.378,0,7.928-3.549,7.928-7.928V90.608c0-4.379-3.549-7.928-7.928-7.928H86.089V15.855h312.199v74.753
				c0,4.379,3.549,7.928,7.928,7.928h74.752v397.609H86.089z"/>
			<path d="M360.344,306.629c-10.765-2.761-18.746-5.08-22.711-7.422c-2.196-1.298-2.28-1.809-2.28-3.76v-0.397
				c0.001-2.694,4.327-4.575,10.523-4.575c7.821,0,16.357,2.791,26.13,8.551c3.901,2.273,7.71,3.332,11.983,3.332
				c12.722,0,22.688-9.875,22.688-22.481c0-9.449-5.524-16.123-10.74-19.255c-14.537-9.216-31.241-13.888-49.653-13.888
				c-34.234,0-58.142,21.047-58.142,51.185v0.397c0,34.988,25.317,44.341,53.505,51.529c11.034,2.838,17.721,5.182,21.043,7.376
				c1.898,1.254,1.898,1.742,1.898,3.191v0.415c0,5.338-10.64,5.609-12.773,5.609c-11.274,0-21.439-3.615-31.992-11.378
				c-0.05-0.036-0.099-0.072-0.15-0.108c-4.074-2.853-8.636-4.299-13.558-4.299c-12.722,0-22.688,9.874-22.688,22.478
				c0,7.267,3.552,14.293,9.27,18.342c16.786,12.049,37.56,18.685,58.498,18.685c36.815,0,60.602-20.566,60.602-52.396v-0.42
				C411.797,324.565,387.082,313.603,360.344,306.629z M395.943,357.759c0,22.88-16.727,36.541-44.747,36.541
				c-17.657,0-35.156-5.584-49.275-15.725c-0.018-0.013-0.037-0.025-0.055-0.038c-1.286-0.908-2.584-2.931-2.584-5.408
				c0-3.776,2.937-6.623,6.833-6.623c2.087,0,3.396,0.692,4.399,1.386c13.201,9.688,26.712,14.398,41.301,14.398
				c13.206,0,28.628-5.621,28.628-21.464v-0.415c0-15.743-14.444-20.674-34.864-25.925c-29.325-7.477-41.583-14.157-41.583-36.17
				v-0.397c0-21.132,16.994-35.33,42.287-35.33c15.391,0,29.269,3.86,41.245,11.475c0.074,0.048,0.15,0.094,0.226,0.138
				c0.72,0.424,3.066,2.089,3.066,5.673c0,3.777-2.937,6.625-6.833,6.625c-1.445,0-2.529-0.319-3.967-1.156
				c-12.247-7.218-23.416-10.727-34.147-10.727c-18.221,0-26.377,10.259-26.377,20.428v0.397
				c0.001,17.077,15.482,21.048,36.877,26.534c29.214,7.619,39.568,16.872,39.568,35.363V357.759z"/>
			<path d="M284.657,306.31h0.001c0-34.406-25.261-57.523-62.86-57.523h-42.827c-13.298,0-23.715,10.417-23.715,23.717V385.63
				c0,13.296,10.417,23.712,23.715,23.712c13.293,0,23.706-10.415,23.706-23.712v-20.565h16.052c18.351,0,34.272-5.02,46.042-14.516
				c13.009-10.495,19.886-25.648,19.886-43.822V306.31z M268.804,306.727h-0.001c0,31.323-25.866,42.482-50.073,42.482h-23.979
				c-4.378,0-7.928,3.549-7.928,7.928v28.493c0,4.406-3.448,7.857-7.85,7.857c-4.408,0-7.86-3.451-7.86-7.857V272.505
				c0-4.409,3.452-7.862,7.86-7.862H221.8c28.993,0,47.004,15.965,47.004,41.667V306.727z"/>
			<path d="M202.675,112.726h-17.848c-4.378,0-7.928,3.548-7.928,7.928v50.653c0,4.37,3.536,7.915,7.906,7.928l17.848,0.049h0.021
				c18.35,0,33.278-14.928,33.278-33.278C235.953,127.656,221.025,112.726,202.675,112.726z M202.686,163.427l-9.931-0.026v-34.819
				h9.92c9.607,0,17.423,7.816,17.423,17.423C220.099,155.608,212.288,163.421,202.686,163.427z"/>
		</g>
	</g>
</g>
<g>
</g>
<g>
</g>
<g>
</g>
<g>
</g>
<g>
</g>
<g>
</g>
<g>
</g>
<g>
</g>
<g>
</g>
<g>
</g>
<g>
</g>
<g>
</g>
<g>
</g>
<g>
</g>
<g>
</g>
</svg>
